<?xml version="1.0" encoding="utf-8"?>
<!-- Generator: Adobe Illustrator 16.2.1, SVG Export Plug-In . SVG Version: 6.00 Build 0)  -->
<!DOCTYPE svg PUBLIC "-//W3C//DTD SVG 1.1//EN" "http://www.w3.org/Graphics/SVG/1.1/DTD/svg11.dtd">
<svg version="1.1" id="Layer_1" xmlns="http://www.w3.org/2000/svg" xmlns:xlink="http://www.w3.org/1999/xlink" x="0px" y="0px"
	 width="824.004px" height="1160.838px" viewBox="0 0 824.004 1160.838" enable-background="new 0 0 824.004 1160.838"
	 xml:space="preserve">
<g id="_x23_">
	<polygon fill="none" stroke="#DF366D" stroke-width="1.0042" stroke-miterlimit="10" points="236.002,0.502 402.752,0.502 
		366.502,290.502 530.668,290.502 568.335,0.502 736.002,0.502 699.002,290.502 823.502,290.502 823.502,479.502 676.003,479.502 
		648.003,679.502 775.002,679.502 775.002,870.002 626.669,870.002 588.669,1160.335 421.336,1160.335 458.003,870.002 
		293.336,870.002 256.669,1160.335 89.336,1160.335 126.669,870.002 0.502,870.002 0.502,679.502 148.669,679.502 174.669,479.502 
		51.551,479.502 51.551,290.502 198.752,290.502 	"/>
	<polygon fill="none" stroke="#DF366D" stroke-width="1.0042" stroke-miterlimit="10" points="343.502,479.502 508.669,479.502 
		480.669,679.502 316.003,679.502 	"/>
	<rect x="51.551" y="290.502" fill="none" width="188.784" height="189"/>
	<rect x="240.335" y="290.502" fill="none" width="207.167" height="189"/>
	<rect x="447.502" y="290.502" fill="none" width="376" height="189"/>
	<rect x="0.502" y="679.502" fill="none" width="343" height="190.5"/>
	<rect x="343.502" y="679.502" fill="none" width="223.5" height="190.5"/>
	<rect x="567.002" y="679.502" fill="none" width="208" height="190.5"/>
	<polygon fill="none" points="236.002,0.502 402.752,0.502 381.752,173.252 214.002,173.252 	"/>
	<polygon fill="none" points="214.002,173.252 381.752,173.252 366.502,290.502 198.752,290.502 	"/>
	<polygon fill="none" points="568.335,0.502 736.002,0.502 717.668,145.002 549.668,145.002 	"/>
	<polygon fill="none" points="717.668,145.002 699.002,290.502 530.668,290.502 549.668,145.002 	"/>
	<polygon fill="none" points="508.669,479.502 676.003,479.502 648.003,679.502 480.669,679.502 	"/>
	<polygon fill="none" points="174.669,479.502 343.502,479.502 316.003,679.502 148.669,679.502 	"/>
	<polygon fill="none" points="126.669,870.002 293.336,870.002 277.336,992.335 111.336,992.335 	"/>
	<polygon fill="none" points="111.336,992.335 277.336,992.335 256.669,1160.335 89.336,1160.335 	"/>
	<polygon fill="none" points="458.003,870.002 626.669,870.002 610.003,985.002 443.336,985.002 	"/>
	<polygon fill="none" points="443.336,985.002 610.003,985.002 588.669,1160.335 421.336,1160.335 	"/>
</g>
</svg>
