<?xml version="1.0" encoding="utf-8"?>
<!-- Generator: Adobe Illustrator 16.2.1, SVG Export Plug-In . SVG Version: 6.00 Build 0)  -->
<!DOCTYPE svg PUBLIC "-//W3C//DTD SVG 1.1//EN" "http://www.w3.org/Graphics/SVG/1.1/DTD/svg11.dtd">
<svg version="1.1" id="Layer_1" xmlns="http://www.w3.org/2000/svg" xmlns:xlink="http://www.w3.org/1999/xlink" x="0px" y="0px"
	 width="924.611px" height="1162px" viewBox="0 0 924.611 1162" enable-background="new 0 0 924.611 1162" xml:space="preserve">
<g id="a">
	<polygon fill="none" points="261.307,202 665.307,203 611.307,1 315.307,1 	"/>
	<polygon fill="none" points="261.307,202 193.307,451 407.307,451 460.307,203 	"/>
	<polygon fill="none" points="193.307,451 407.307,451 373.307,601 153.307,601 	"/>
	<polyline fill="none" points="373.307,601 313.307,887 73.307,887 152.307,601 	"/>
	<polygon fill="none" points="313.307,887 249.307,1161 1.307,1161 73.307,887 	"/>
	<polygon fill="none" points="349.307,725 577.307,725 619.307,917 306.299,917 	"/>
	<polygon fill="none" points="460.307,203 665.307,203 739.307,473 525.307,473 	"/>
	<polygon fill="none" points="525.307,473 543.307,551 761.307,551 739.307,473 	"/>
	<polygon fill="none" points="543.307,551 761.307,551 821.307,785 591.307,785 	"/>
	<polygon fill="none" points="679.307,1161 923.307,1161 821.307,785 591.307,785 	"/>
	<polygon fill="none" stroke="#DF366D" stroke-width="2" stroke-miterlimit="10" points="315.307,1 611.307,1 923.307,1161 
		679.307,1161 622.2,917 306.299,917 249.307,1161 1.307,1161 	"/>
	<polygon fill="none" stroke="#DF366D" stroke-width="2" stroke-miterlimit="10" points="460.307,203 577.951,725.583 349.307,725 	
		"/>
</g>
</svg>
