<?xml version="1.0" encoding="utf-8"?>
<!-- Generator: Adobe Illustrator 16.2.1, SVG Export Plug-In . SVG Version: 6.00 Build 0)  -->
<!DOCTYPE svg PUBLIC "-//W3C//DTD SVG 1.1//EN" "http://www.w3.org/Graphics/SVG/1.1/DTD/svg11.dtd">
<svg version="1.1" xmlns="http://www.w3.org/2000/svg" xmlns:xlink="http://www.w3.org/1999/xlink" x="0px" y="0px"
	 width="762px" height="1164.5px" viewBox="0 0 762 1164.5" enable-background="new 0 0 762 1164.5" xml:space="preserve">
<g id="H">
	<g>
		<defs>
			<rect id="SVGID_73_" y="340.167" width="241.333" height="157.668"/>
		</defs>
		<clipPath id="SVGID_2_">
			<use xlink:href="#SVGID_73_"  overflow="visible"/>
		</clipPath>
		<g id="RvIteU_1_" clip-path="url(#SVGID_2_)">
			
				<image overflow="visible" width="240" height="240" id="RvIteU_2_" xlink:href="F5EC07C692D72B1D.jpg"  transform="matrix(1 0 0 1 0.9165 340.8335)">
			</image>
		</g>
	</g>
	<g id="_x31_WfOaf_1_">
		
			<image overflow="visible" width="240" height="304" id="_x31_WfOaf_2_" xlink:href="F5EC07C692D72B1F.jpg"  transform="matrix(1 0 0 1 1.25 496.5)">
		</image>
	</g>
	<g id="xv2JAr_1_">
		
			<image overflow="visible" width="240" height="235" id="xv2JAr_2_" xlink:href="F5EC07C692D72B1A.jpg"  transform="matrix(1 0 0 1 0.25 1.25)">
		</image>
	</g>
	<g id="HDVRvp_1_">
		
			<image overflow="visible" width="240" height="103" id="HDVRvp_2_" xlink:href="F5EC07C692D72B1B.jpg"  transform="matrix(1 0 0 1 0.25 237.1665)">
		</image>
	</g>
	<g id="_x35_AqPYG_1_">
		
			<image overflow="visible" width="240" height="92" id="_x35_AqPYG_2_" xlink:href="F5EC07C692D72B25.jpg"  transform="matrix(1 0 0 1 519.75 654.5)">
		</image>
	</g>
	<g>
		<defs>
			<rect id="SVGID_75_" x="0.25" y="801.5" width="241.083" height="152"/>
		</defs>
		<clipPath id="SVGID_4_">
			<use xlink:href="#SVGID_75_"  overflow="visible"/>
		</clipPath>
		<g id="V0rlnU_1_" clip-path="url(#SVGID_4_)">
			
				<image overflow="visible" width="240" height="234" id="V0rlnU_2_" xlink:href="F5EC07C692D72B27.jpg"  transform="matrix(1 0 0 0.9935 0.25 721.6909)">
			</image>
		</g>
	</g>
	<g id="G28Mo7_1_">
		
			<image overflow="visible" width="240" height="208" id="G28Mo7_2_" xlink:href="F5EC07C692D72B2A.jpg"  transform="matrix(1 0 0 1 0.9165 953.25)">
		</image>
	</g>
	<g id="ujONM1_1_">
		
			<image overflow="visible" width="279" height="202" id="ujONM1_2_" xlink:href="F5EC07C692D72B2B.jpg"  transform="matrix(1.0027 0 0 1 240.5 444.75)">
		</image>
	</g>
	<g>
		<defs>
			<rect id="SVGID_77_" x="519" y="1" width="241.5" height="183"/>
		</defs>
		<clipPath id="SVGID_6_">
			<use xlink:href="#SVGID_77_"  overflow="visible"/>
		</clipPath>
		<g id="rGgWvs_1_" clip-path="url(#SVGID_6_)">
			
				<image overflow="visible" width="240" height="232" id="rGgWvs_2_" xlink:href="F5EC07C692D72B2D.jpg"  transform="matrix(1 0 0 1 519.75 1)">
			</image>
		</g>
	</g>
	<g>
		<defs>
			<rect id="SVGID_79_" x="519" y="183.667" width="241.5" height="235.667"/>
		</defs>
		<clipPath id="SVGID_8_">
			<use xlink:href="#SVGID_79_"  overflow="visible"/>
		</clipPath>
		<g id="EtWqXS_1_" clip-path="url(#SVGID_8_)">
			
				<image overflow="visible" width="241" height="236" id="EtWqXS_2_" xlink:href="8B1D1FB339193B36.jpg"  transform="matrix(1 0 0 1 519.25 183.6665)">
			</image>
		</g>
	</g>
	<g id="CZD4VG_1_">
		
			<image overflow="visible" width="240" height="235" id="CZD4VG_2_" xlink:href="8B1D1FB339193B31.jpg"  transform="matrix(1 0 0 1 519.75 418.4165)">
		</image>
	</g>
	<g>
		<defs>
			<rect id="SVGID_81_" x="519.667" y="746.167" width="240.833" height="217.833"/>
		</defs>
		<clipPath id="SVGID_10_">
			<use xlink:href="#SVGID_81_"  overflow="visible"/>
		</clipPath>
		<g id="_x37_QZLFM_1_" clip-path="url(#SVGID_10_)">
			
				<image overflow="visible" width="240" height="240" id="_x37_QZLFM_2_" xlink:href="8B1D1FB339193B32.jpg"  transform="matrix(1 0 0 1 520 746.5)">
			</image>
		</g>
	</g>
	<g id="TYZLGJ_1_">
		
			<image overflow="visible" width="240" height="197" id="TYZLGJ_2_" xlink:href="8B1D1FB339193B30.jpg"  transform="matrix(1 0 0 1.0127 520.084 964)">
		</image>
	</g>
	<g id="h">
		<polygon fill="none" stroke="#DF366D" stroke-width="2" stroke-miterlimit="10" points="1,1 240.5,1 241.833,445 519.5,445 
			519.5,1 761,1 761,1163.5 520,1163.5 519.5,646.5 241.322,646.5 241.833,1161 1,1161 		"/>
		<rect x="0.5" y="1" fill="none" width="239.5" height="235.5"/>
		<polygon fill="none" points="240,236.5 241.333,340.833 0.5,340.833 0.5,236.5 		"/>
		<polyline fill="none" points="241.333,342.166 241.333,497.832 0.5,497.832 0.5,340.833 241.333,340.833 		"/>
		<polygon fill="none" points="0.5,497.832 240.333,497.832 241.333,802.166 0.5,800.833 		"/>
		<polygon fill="none" points="0.5,953.5 0.5,800.833 241.333,802.166 241.333,953.5 		"/>
		<path fill="none" d="M0.5,1161"/>
		<rect x="0.5" y="953.5" fill="none" width="240.833" height="207.5"/>
		<polygon fill="none" points="241.333,445 519.5,445 519.5,646.5 240.822,646.5 		"/>
		<rect x="519" y="1" fill="none" width="241.5" height="183"/>
		<polygon fill="none" points="760.5,184 760.5,419.333 519.5,419.333 519,184 		"/>
		<polygon fill="none" points="760.5,419.333 760.5,654.5 519,654.5 519.5,419.5 		"/>
		<polygon fill="none" points="760.5,654.5 760.5,746.5 519.5,746.5 519,654.5 		"/>
		<rect x="519.5" y="746.5" fill="none" width="241" height="217.5"/>
		<rect x="519.5" y="964" fill="none" width="241" height="199.5"/>
	</g>
</g>

</svg>