<?xml version="1.0" encoding="utf-8"?>
<!-- Generator: Adobe Illustrator 16.2.1, SVG Export Plug-In . SVG Version: 6.00 Build 0)  -->
<!DOCTYPE svg PUBLIC "-//W3C//DTD SVG 1.1//EN" "http://www.w3.org/Graphics/SVG/1.1/DTD/svg11.dtd">
<svg version="1.1" id="Layer_1" xmlns="http://www.w3.org/2000/svg" xmlns:xlink="http://www.w3.org/1999/xlink" x="0px" y="0px"
	 width="809.065px" height="1164.822px" viewBox="0 0 809.065 1164.822" enable-background="new 0 0 809.065 1164.822"
	 xml:space="preserve">
<g id="R_pic">
	<g id="iipX1d_1_">
		
			<image overflow="visible" width="173" height="173" id="iipX1d_2_" xlink:href="56CB418FCDB17AF1.jpg"  transform="matrix(1 0 0 1 1.5322 1.4546)">
		</image>
	</g>
	<g id="oywGbl_1_">
		
			<image overflow="visible" width="173" height="173" id="oywGbl_2_" xlink:href="56CB418FCDB17AF3.jpg"  transform="matrix(1 0 0 1 174.5322 1.4546)">
		</image>
	</g>
	<g id="_x30_o6VI0_1_">
		
			<image overflow="visible" width="240" height="251" id="_x30_o6VI0_2_" xlink:href="56CB418FCDB17AF6.jpg"  transform="matrix(1 0 0 1 2.1997 173.7539)">
		</image>
	</g>
	<g id="f4jRuD_1_">
		
			<image overflow="visible" width="240" height="268" id="f4jRuD_2_" xlink:href="56CB418FCDB17AF7.jpg"  transform="matrix(1 0 0 1 2.1997 420.9468)">
		</image>
	</g>
	<g id="w3TsV7_1_">
		
			<image overflow="visible" width="240" height="213" id="w3TsV7_2_" xlink:href="56CB418FCDB17AF2.jpg"  transform="matrix(1 0 0 1 2.1992 688.9473)">
		</image>
	</g>
	<g id="jXCL4E_1_">
		
			<image overflow="visible" width="240" height="311" id="jXCL4E_2_" xlink:href="56CB418FCDB17AFD.jpg"  transform="matrix(1 0 0 1 2.1992 851.9473)">
		</image>
	</g>
	<g>
		<defs>
			<path id="SVGID_31_" d="M347.487,1.148v173.613c0,0,70.24-6.445,134.573,43.721h272.333c0,0-2.182-128.35-163.091-191.592
				c0,0-57.366-23.505-141.7-25.743"/>
		</defs>
		<clipPath id="SVGID_2_">
			<use xlink:href="#SVGID_31_"  overflow="visible"/>
		</clipPath>
		<g id="WxlaIo_1_" clip-path="url(#SVGID_2_)">
			
				<image overflow="visible" width="406" height="217" id="WxlaIo_2_" xlink:href="56CB418FCDB17AFE.jpg"  transform="matrix(1 0 0 1 346.9404 1.3154)">
			</image>
		</g>
	</g>
	<g>
		<defs>
			<path id="SVGID_33_" d="M482.061,218.482h272.333c0,0,36.502,172.002-38.999,275.334H430.728c0,0,87.167-23,91.666-140.168
				C522.394,353.648,530.228,268.816,482.061,218.482z"/>
		</defs>
		<clipPath id="SVGID_4_">
			<use xlink:href="#SVGID_33_"  overflow="visible"/>
		</clipPath>
		<g id="t69hXl_1_" clip-path="url(#SVGID_4_)">
			
				<image overflow="visible" width="324" height="276" id="t69hXl_2_" xlink:href="56CB418FCDB17AFF.jpg"  transform="matrix(1.0175 0 0 1 434.2266 218.1494)">
			</image>
		</g>
	</g>
	<g>
		<defs>
			<path id="SVGID_35_" d="M243.394,507.817h100c0,0,54-2.001,87.333-14h284.667c0,0-50.335,75.83-151.334,94.332
				c0,0,124,15.003,154,91.669H430.728c0,0-25.333-8.001-56-7.334H243.394V507.817z"/>
		</defs>
		<clipPath id="SVGID_6_">
			<use xlink:href="#SVGID_35_"  overflow="visible"/>
		</clipPath>
		<g id="Rbh0Vg_1_" clip-path="url(#SVGID_6_)">
			
				<image overflow="visible" width="472" height="186" id="Rbh0Vg_2_" xlink:href="56CB418FCDB17AF4.jpg"  transform="matrix(1.0174 0 0 1.0215 242.1992 493.1504)">
			</image>
		</g>
	</g>
	<g>
		<defs>
			<path id="SVGID_37_" d="M718.061,679.817c0,0,24,40,30.667,118l4,94H512.061V819.15c0,0-0.667-107.333-81.333-139.333H718.061z"
				/>
		</defs>
		<clipPath id="SVGID_8_">
			<use xlink:href="#SVGID_37_"  overflow="visible"/>
		</clipPath>
		<g id="Oo0eAf_1_" clip-path="url(#SVGID_8_)">
			
				<image overflow="visible" width="318" height="233" id="Oo0eAf_2_" xlink:href="8B6079C8BAA6C4EA.jpg"  transform="matrix(1.0168 0 0 1 430.7275 660.9473)">
			</image>
		</g>
	</g>
	<g>
		<defs>
			<path id="SVGID_39_" d="M752.728,891.817l6.667,129.333c0,0-6.667,105.998,48.666,130v12.667H547.395c0,0-29.334-24-30.667-122
				l-4.667-150H752.728z"/>
		</defs>
		<clipPath id="SVGID_10_">
			<use xlink:href="#SVGID_39_"  overflow="visible"/>
		</clipPath>
		<g id="fF4ujG_1_" clip-path="url(#SVGID_10_)">
			
				<image overflow="visible" width="294" height="269" id="fF4ujG_2_" xlink:href="8B6079C8BAA6C4ED.jpg"  transform="matrix(1.0068 0 0 1.0112 512.0605 891.8174)">
			</image>
		</g>
	</g>
	<g id="r">
		<path fill="none" stroke="#DF366D" stroke-width="2.0099" stroke-miterlimit="10" d="M1.005,1163.817V1.148h429.723
			c0,0,288.666-13.332,323.666,217.334c0,0,67.334,319.668-192.667,369.666c0,0,117.001,12.338,156.334,91.669
			c0,0,36.001,50.669,34.667,212l6.667,129.333c0,0-4.501,109.998,48.666,131v11.667H547.395c0,0-27.349-15.357-31.103-136
			l-4.231-136V819.15c0,0,0-106.975-81.19-139.699c-21.561-8.69-48.499-6.958-83.383-6.968H243.394v491.334H1.005z"/>
		<path fill="none" stroke="#DF366D" stroke-width="2.0099" stroke-miterlimit="10" d="M243.394,174.761h104.093
			c0,0,75.24-6.945,134.573,43.721c0,0,48.334,39.834,40.333,135.166c0,0,1.668,104.836-91.666,140.168
			c0,0-39.334,18.669-121.334,14h-66V174.761z"/>
		<path fill="none" d="M347.487,1.148h112.573c0,0,265.332,1.334,294.333,217.334H482.061c0,0-48.479-49.442-134.573-43.721V1.148z"
			/>
		<path fill="none" d="M482.061,218.482c0,0,47,37.833,40.333,135.166c0,0,1,106.834-91.666,140.168h284.667
			c0,0,69.332-78.668,38.999-275.334H482.061z"/>
		<path fill="none" d="M243.394,507.817h100c0,0,54-2.001,87.333-14h284.667c0,0-50.335,75.83-151.334,94.332
			c0,0,124,15.003,154,91.669H430.728c0,0-25.333-8.001-56-7.334H243.394V507.817z"/>
		<path fill="none" d="M718.061,679.817c0,0,24,40,30.667,118l4,94H512.061V819.15c0,0-0.667-107.333-81.333-139.333H718.061z"/>
		<path fill="none" d="M752.728,891.817l6.667,129.333c0,0-6.667,105.998,48.666,130v12.667H547.395c0,0-29.334-24-30.667-122
			l-4.667-150H752.728z"/>
		<rect x="1.005" y="174.761" fill="none" width="242.389" height="248.985"/>
		<rect x="175.06" y="1.148" fill="none" width="172.427" height="173.613"/>
		<rect x="1.005" y="1.148" fill="none" width="174.055" height="173.613"/>
		<rect x="1.005" y="423.747" fill="none" width="242.389" height="262.401"/>
		<rect x="1.005" y="686.147" fill="none" width="242.389" height="164.667"/>
		<rect x="1.005" y="850.814" fill="none" width="242.389" height="313.003"/>
	</g>
</g>
</svg>
