<?xml version="1.0" encoding="utf-8"?>
<!-- Generator: Adobe Illustrator 16.2.1, SVG Export Plug-In . SVG Version: 6.00 Build 0)  -->
<!DOCTYPE svg PUBLIC "-//W3C//DTD SVG 1.1//EN" "http://www.w3.org/Graphics/SVG/1.1/DTD/svg11.dtd">
<svg version="1.1" xmlns="http://www.w3.org/2000/svg" xmlns:xlink="http://www.w3.org/1999/xlink" x="0px" y="0px"
	 width="683.334px" height="1163.337px" viewBox="0 0 683.334 1163.337" enable-background="new 0 0 683.334 1163.337"
	 xml:space="preserve">
<g id="E">
	<g id="E1">
		<defs>
			<rect id="SVGID_63_" x="479.333" y="0.667" width="187.001" height="195"/>
		</defs>
		<clipPath id="SVGID_2_">
			<use xlink:href="#SVGID_63_"  overflow="visible"/>
		</clipPath>
		<g id="RaZ2QB_1_" clip-path="url(#SVGID_2_)">
			
				<image overflow="visible" width="193" height="193" id="RaZ2QB_2_" xlink:href="3A5A513E35CBD307.jpg"  transform="matrix(1 0 0 1.0147 479.334 0.5)">
			</image>
		</g>
	</g>
	<g id="E2">
		<defs>
			<rect id="SVGID_65_" x="1" y="1" width="478.334" height="193.667"/>
		</defs>
		<clipPath id="SVGID_4_">
			<use xlink:href="#SVGID_65_"  overflow="visible"/>
		</clipPath>
		<g id="iEisuj_1_" clip-path="url(#SVGID_4_)">
			
				<image overflow="visible" width="476" height="192" id="iEisuj_2_" xlink:href="3A5A513E35CBD305.jpg"  transform="matrix(1.0028 0 0 1.0139 2 1)">
			</image>
		</g>
	</g>
	<g id="E3">
		
			<image overflow="visible" width="240" height="72" id="_x36_lltPN_2_" xlink:href="3A5A513E35CBD30B.jpg"  transform="matrix(1 0 0 0.9676 2.333 195.6665)">
		</image>
	</g>
	<g id="E4">
		<defs>
			<rect id="SVGID_67_" x="1" y="265.667" width="242.334" height="214.667"/>
		</defs>
		<clipPath id="SVGID_6_">
			<use xlink:href="#SVGID_67_"  overflow="visible"/>
		</clipPath>
		<g id="ZVYjFi_1_" clip-path="url(#SVGID_6_)">
			
				<image overflow="visible" width="240" height="219" id="ZVYjFi_2_" xlink:href="3A5A513E35CBD30D.jpg"  transform="matrix(1.0069 0 0 1 1.6699 266.3335)">
			</image>
		</g>
	</g>
	<g id="E5">
		
			<image overflow="visible" width="240" height="264" id="MyXmuJ_2_" xlink:href="3A5A513E35CBD30F.jpg"  transform="matrix(1.0049 0 0 1 2.167 480.25)">
		</image>
	</g>
	<g id="E6">
		<defs>
			<rect id="SVGID_69_" x="1" y="744.167" width="242.334" height="202.833"/>
		</defs>
		<clipPath id="SVGID_8_">
			<use xlink:href="#SVGID_69_"  overflow="visible"/>
		</clipPath>
		<g id="LcLEJX_1_" clip-path="url(#SVGID_8_)">
			
				<image overflow="visible" width="240" height="208" id="LcLEJX_2_" xlink:href="3A5A513E35CBD30C.jpg"  transform="matrix(1 0 0 1 2 743.1665)">
			</image>
		</g>
	</g>
	<g id="E7">
		
			<image overflow="visible" width="240" height="215" id="_x32_Mf5oa_2_" xlink:href="3A5A513E35CBD304.jpg"  transform="matrix(1.0049 0 0 1 1.167 944.833)">
		</image>
	</g>
	<g id="E8">
		
			<image overflow="visible" width="441" height="192" id="Ihwnjt_2_" xlink:href="3A5A513E35CBD306.jpg"  transform="matrix(1 0 0 1 241.834 968.6665)">
		</image>
	</g>
	<g id="E9">
		
			<image overflow="visible" width="191" height="192" id="qbnUVz_2_" xlink:href="3A5A513E35CBD302.jpg"  transform="matrix(1 0 0 1 242.334 466.6665)">
		</image>
	</g>
	<g id="E10">
		<defs>
			<rect id="SVGID_71_" x="432.333" y="465.667" width="209" height="194"/>
		</defs>
		<clipPath id="SVGID_10_">
			<use xlink:href="#SVGID_71_"  overflow="visible"/>
		</clipPath>
		<g id="N9z8St_1_" clip-path="url(#SVGID_10_)">
			
				<image overflow="visible" width="238" height="192" id="N9z8St_2_" xlink:href="6F0DBDFDC6758004.jpg"  transform="matrix(1 0 0 1 402.333 466.6665)">
			</image>
		</g>
	</g>
	<path fill="none" stroke="#DF366D" stroke-width="2" stroke-miterlimit="10" d="M243.334,194.667"/>
	<path fill="none" stroke="#DF366D" stroke-width="2" stroke-miterlimit="10" d="M243.334,194.667"/>
	<g id="e">
		<polyline fill="none" stroke="#DF366D" stroke-width="2" stroke-miterlimit="10" points="242.334,465.667 641.333,465.667 
			641.333,659.667 242.334,659.667 242.334,969 682.334,969 682.334,1162.333 1,1159.667 1,1 666.334,1 666.334,195.667 
			242.334,195.667 		"/>
		<polygon fill="none" points="2,1 479.334,1 479.334,195.667 2,192.333 		"/>
		<rect x="479.334" y="1" fill="none" width="188" height="194.667"/>
		<path fill="none" d="M459.334,241"/>
		<polygon fill="none" points="243.334,194.667 243.334,265.667 2,265.667 2,192.333 		"/>
		<rect x="2" y="265.667" fill="none" width="241.334" height="214.667"/>
		<rect x="2" y="480.333" fill="none" width="241.334" height="263.833"/>
		<rect x="2" y="744.167" fill="none" width="241.334" height="202.833"/>
		<rect x="2" y="947" fill="none" width="241.334" height="212.667"/>
		<polygon fill="none" points="683.334,969 683.334,1162.333 243.334,1159.667 243.334,969 		"/>
		<rect x="243.334" y="465.667" fill="none" width="188.999" height="194"/>
		<rect x="432.333" y="465.667" fill="none" width="210" height="194"/>
		<polyline fill="none" stroke="#DF366D" stroke-miterlimit="10" points="242.334,466.667 243.334,194.667 243.334,465.667 		"/>
	</g>
</g>
</svg>
