<?xml version="1.0" encoding="utf-8"?>
<!-- Generator: Adobe Illustrator 16.2.1, SVG Export Plug-In . SVG Version: 6.00 Build 0)  -->
<!DOCTYPE svg PUBLIC "-//W3C//DTD SVG 1.1//EN" "http://www.w3.org/Graphics/SVG/1.1/DTD/svg11.dtd">
<svg version="1.1" xmlns="http://www.w3.org/2000/svg" xmlns:xlink="http://www.w3.org/1999/xlink" x="0px" y="0px"
	 width="244.001px" height="1163.333px" viewBox="0 0 244.001 1163.333" enable-background="new 0 0 244.001 1163.333"
	 xml:space="preserve">
<g id="I">
	<g id="wt39EY_1_">
		
			<image overflow="visible" width="240" height="213" id="wt39EY_2_" xlink:href="1F7E906A6372AE2F.jpg"  transform="matrix(1 0 0 1 3.001 1.8335)">
		</image>
		<g id="Yjtix5_1_">
			
				<image overflow="visible" width="240" height="236" id="Yjtix5_2_" xlink:href="1F7E906A6372AE2D.jpg"  transform="matrix(1 0 0 1 2.668 450.0835)">
			</image>
		</g>
	</g>
	<g id="UGVK5N_1_">
		
			<image overflow="visible" width="240" height="284" id="UGVK5N_2_" xlink:href="1F7E906A6372AE33.jpg"  transform="matrix(1 0 0 1 3.001 876.3335)">
		</image>
	</g>
	<g id="y9DqDP_1_">
		
			<image overflow="visible" width="240" height="192" id="y9DqDP_2_" xlink:href="1F7E906A6372AE35.jpg"  transform="matrix(1 0 0 1 2.001 684.3335)">
		</image>
	</g>
	<g id="pV2QQf_1_">
		
			<image overflow="visible" width="240" height="236" id="pV2QQf_2_" xlink:href="1F7E906A6372AE37.jpg"  transform="matrix(1 0 0 1 2.668 214.25)">
		</image>
	</g>
	<g id="i">
		<polygon fill="none" stroke="#DF366D" stroke-width="2" stroke-miterlimit="10" points="2.334,1 243.001,1 243.001,1162.333 
			1.001,1162.333 		"/>
		<rect x="3.334" y="1" fill="none" width="240.667" height="214.667"/>
		<polyline fill="none" points="3.334,215.667 2.001,450.833 244.001,450.833 244.001,215.667 		"/>
		<rect x="2.001" y="450.833" fill="none" width="242" height="234.5"/>
		<rect x="2.001" y="685.333" fill="none" width="242" height="192"/>
		<path fill="none" d="M2.001,1162.333h242H2.001z"/>
		<rect x="2.001" y="877.333" fill="none" width="242" height="285"/>
	</g>
</g>
</svg>
