<?xml version="1.0" encoding="utf-8"?>
<!-- Generator: Adobe Illustrator 16.2.1, SVG Export Plug-In . SVG Version: 6.00 Build 0)  -->
<!DOCTYPE svg PUBLIC "-//W3C//DTD SVG 1.1//EN" "http://www.w3.org/Graphics/SVG/1.1/DTD/svg11.dtd">
<svg version="1.1" id="Layer_1" xmlns="http://www.w3.org/2000/svg" xmlns:xlink="http://www.w3.org/1999/xlink" x="0px" y="0px"
	 width="860.536px" height="1164.186px" viewBox="0 0 860.536 1164.186" enable-background="new 0 0 860.536 1164.186"
	 xml:space="preserve">
<rect x="-192" y="-23.486" display="none" fill="#8E8E8E" width="1200" height="1209"/>
<g id="Y_Pic">
	<g>
		<defs>
			<polyline id="SVGID_1_" points="627.334,532.514 433.5,531.764 432.683,705.038 550.583,705.038 			"/>
		</defs>
		<clipPath id="SVGID_2_">
			<use xlink:href="#SVGID_1_"  overflow="visible"/>
		</clipPath>
		<g id="wruJyr_1_" clip-path="url(#SVGID_2_)">
			
				<image overflow="visible" width="206" height="176" id="wruJyr_3_" xlink:href="79CCFE0A81F2106F.jpg"  transform="matrix(1 0 0 0.9911 421.7598 532.1807)">
			</image>
		</g>
	</g>
	<g>
		<defs>
			<polyline id="SVGID_3_" points="471.5,341.014 431.683,447.809 432.683,532.181 627.334,532.514 710.5,341.014 			"/>
		</defs>
		<clipPath id="SVGID_4_">
			<use xlink:href="#SVGID_3_"  overflow="visible"/>
		</clipPath>
		<g id="ULpr9H_1_" clip-path="url(#SVGID_4_)">
			
				<image overflow="visible" width="275" height="192" id="ULpr9H_3_" xlink:href="79CCFE0A81F2106D.jpg"  transform="matrix(1.0084 0 0 1 433.1846 340.6094)">
			</image>
		</g>
	</g>
	<g>
		<defs>
			<polyline id="SVGID_5_" points="524,199.014 772.701,199.514 710.5,341.014 471.5,341.014 			"/>
		</defs>
		<clipPath id="SVGID_6_">
			<use xlink:href="#SVGID_5_"  overflow="visible"/>
		</clipPath>
		<g id="_x34_f4jO8_1_" clip-path="url(#SVGID_6_)">
			
				<image overflow="visible" width="299" height="143" id="_x34_f4jO8_3_" xlink:href="79CCFE0A81F21073.jpg"  transform="matrix(1 0 0 1 472 199.5137)">
			</image>
		</g>
	</g>
	<g>
		<defs>
			<polyline id="SVGID_7_" points="103.584,232.515 353.35,232.515 429.683,449.275 198.072,449.275 			"/>
		</defs>
		<clipPath id="SVGID_8_">
			<use xlink:href="#SVGID_7_"  overflow="visible"/>
		</clipPath>
		<g id="QJ9tbh_1_" clip-path="url(#SVGID_8_)">
			
				<image overflow="visible" width="342" height="321" id="QJ9tbh_3_" xlink:href="79CCFE0A81F21075.jpg"  transform="matrix(1.0225 0 0 1 83 129.5137)">
			</image>
		</g>
	</g>
	<g>
		<defs>
			<polyline id="SVGID_9_" points="198.584,449.275 432.912,449.275 432.912,704.038 309.924,704.038 			"/>
		</defs>
		<clipPath id="SVGID_10_">
			<use xlink:href="#SVGID_9_"  overflow="visible"/>
		</clipPath>
		<g id="_x37_mf1am_1_" clip-path="url(#SVGID_10_)">
			
				<image overflow="visible" width="235" height="257" id="_x37_mf1am_3_" xlink:href="79CCFE0A81F21077.jpg"  transform="matrix(1.0053 0 0 1.0081 197.335 447.2129)">
			</image>
		</g>
	</g>
	<g>
		<defs>
			<polygon id="SVGID_11_" points="597.174,1.765 857.668,1.765 773.912,197.685 525,197.685 			"/>
		</defs>
		<clipPath id="SVGID_12_">
			<use xlink:href="#SVGID_11_"  overflow="visible"/>
		</clipPath>
		<g id="DRZD6X_1_" clip-path="url(#SVGID_12_)">
			
				<image overflow="visible" width="333" height="201" id="DRZD6X_3_" xlink:href="79CCFE0A81F21074.jpg"  transform="matrix(1.0167 0 0 1.009 521.6426 0)">
			</image>
		</g>
	</g>
	<g id="sudAPA_1_">
		
			<image overflow="visible" width="241" height="459" id="sudAPA_3_" xlink:href="79CCFE0A81F2107C.jpg"  transform="matrix(1 0 0 1 309.3394 704.5264)">
		</image>
	</g>
	<g>
		<defs>
			<polygon id="SVGID_13_" points="1.667,2.014 273,2.014 353.667,232.515 101.667,232.515 			"/>
		</defs>
		<use xlink:href="#SVGID_13_"  overflow="visible" fill="#8E8E8E"/>
		<clipPath id="SVGID_14_">
			<use xlink:href="#SVGID_13_"  overflow="visible"/>
		</clipPath>
		<g id="v7rsF9_1_" clip-path="url(#SVGID_14_)">
			
				<image overflow="visible" width="351" height="230" id="v7rsF9_3_" xlink:href="79CCFE0A81F2107D.jpg"  transform="matrix(1.0135 0 0 1 0 2.2646)">
			</image>
		</g>
	</g>
	<g id="y">
		<polygon fill="none" stroke="#DF366D" stroke-width="2.0099" stroke-miterlimit="10" points="1.667,2.014 273,2.014 
			430.683,450.514 596.5,2.014 859,2.014 551.808,705.038 550.583,1163.181 309.095,1163.181 309.095,705.038 		"/>
		<rect x="309.095" y="705.038" fill="none" width="241.488" height="458.143"/>
		<polygon fill="none" points="433.172,532.181 627.334,532.514 551.808,705.038 432.185,705.038 		"/>
		<polygon fill="none" points="432.683,454.514 432.683,705.038 309.095,705.038 197,450.514 432.683,450.514 		"/>
		<polygon fill="none" points="710.5,341.014 627.334,532.514 432.683,532.181 432.683,450.514 471.5,341.014 		"/>
		<polygon fill="none" points="471.5,341.014 524,199.014 773.5,199.014 710.5,341.014 		"/>
		<polygon fill="none" points="524,199.014 596.5,2.014 859,2.014 773.5,199.014 		"/>
		<polygon fill="none" points="353.667,232.515 430.683,450.514 197,450.514 101.667,232.515 		"/>
		<polygon fill="none" points="1.667,2.014 273,2.014 353.667,232.515 101.667,232.515 		"/>
	</g>
</g>
</svg>
