<?xml version="1.0" encoding="utf-8"?>
<!-- Generator: Adobe Illustrator 16.2.1, SVG Export Plug-In . SVG Version: 6.00 Build 0)  -->
<!DOCTYPE svg PUBLIC "-//W3C//DTD SVG 1.1//EN" "http://www.w3.org/Graphics/SVG/1.1/DTD/svg11.dtd">
<svg version="1.1" xmlns="http://www.w3.org/2000/svg" xmlns:xlink="http://www.w3.org/1999/xlink" x="0px" y="0px"
	 width="825.01px" height="1161.843px" viewBox="0 0 825.01 1161.843" enable-background="new 0 0 825.01 1161.843"
	 xml:space="preserve">
<g id="HASH">
	<g id="hash1">
		
			<image overflow="visible" width="195" height="203" id="FJVU7J_2_" xlink:href="B88725F9B4605F37.jpg"  transform="matrix(1 0 0 1 481.3389 480.0049)">
		</image>
		<g>
			<defs>
				<polyline id="SVGID_83_" points="277.839,992.838 257.172,1160.838 89.839,1160.838 111.839,992.838 				"/>
			</defs>
			<clipPath id="SVGID_2_">
				<use xlink:href="#SVGID_83_"  overflow="visible"/>
			</clipPath>
			<g id="uRlrpM_1_" clip-path="url(#SVGID_2_)">
				
					<image overflow="visible" width="184" height="169" id="uRlrpM_2_" xlink:href="B88725F9B4605F35.jpg"  transform="matrix(1.0118 0 0 1.0118 90.5049 989.0049)">
				</image>
			</g>
		</g>
	</g>
	<g id="hash2">
		
			<image overflow="visible" width="376" height="187" id="_x30_LqJsP_2_" xlink:href="B88725F9B4605F3B.jpg"  transform="matrix(1 0 0 1 448.0049 292.0049)">
		</image>
	</g>
	<g id="hash3">
		<defs>
			<polyline id="SVGID_85_" points="127.172,870.505 293.839,870.505 277.839,992.838 111.839,992.838 			"/>
		</defs>
		<clipPath id="SVGID_4_">
			<use xlink:href="#SVGID_85_"  overflow="visible"/>
		</clipPath>
		<g id="hvIVIm_1_" clip-path="url(#SVGID_4_)">
			
				<image overflow="visible" width="183" height="179" id="hvIVIm_2_" xlink:href="B88725F9B4605F3D.jpg"  transform="matrix(1.0082 0 0 1 109.3389 835.5049)">
			</image>
		</g>
	</g>
	<g id="hash4">
		<defs>
			<polyline id="SVGID_87_" points="443.839,985.755 458.255,870.005 627.172,870.005 612.087,985.755 			"/>
		</defs>
		<clipPath id="SVGID_6_">
			<use xlink:href="#SVGID_87_"  overflow="visible"/>
		</clipPath>
		<g id="bOl5yM_1_" clip-path="url(#SVGID_6_)">
			
				<image overflow="visible" width="181" height="117" id="bOl5yM_2_" xlink:href="B88725F9B4605F3F.jpg"  transform="matrix(1 0 0 1 444.8389 868.3799)">
			</image>
		</g>
	</g>
	<g id="hash5">
		<defs>
			<polyline id="SVGID_89_" points="344.005,478.505 316.506,680.005 149.172,680.005 176.755,478.505 			"/>
		</defs>
		<clipPath id="SVGID_8_">
			<use xlink:href="#SVGID_89_"  overflow="visible"/>
		</clipPath>
		<g id="J0mOBu_1_" clip-path="url(#SVGID_8_)">
			
				<image overflow="visible" width="194" height="204" id="J0mOBu_2_" xlink:href="B88725F9B4605F3C.jpg"  transform="matrix(1.0205 0 0 0.9906 146.4463 477.4141)">
			</image>
		</g>
	</g>
	<g id="hash6">
		<defs>
			<polyline id="SVGID_91_" points="611.839,985.755 589.172,1160.838 421.839,1160.838 443.839,985.505 			"/>
		</defs>
		<clipPath id="SVGID_10_">
			<use xlink:href="#SVGID_91_"  overflow="visible"/>
		</clipPath>
		<g id="oyuu1t_1_" clip-path="url(#SVGID_10_)">
			
				<image overflow="visible" width="190" height="173" id="oyuu1t_2_" xlink:href="B88725F9B4605F34.jpg"  transform="matrix(1 0 0 1.0063 421.8389 985.7549)">
			</image>
		</g>
	</g>
	<g id="hash7">
		<defs>
			<rect id="SVGID_93_" x="343.838" y="679.841" width="223.417" height="190.914"/>
		</defs>
		<clipPath id="SVGID_12_">
			<use xlink:href="#SVGID_93_"  overflow="visible"/>
		</clipPath>
		<g id="TNbIrj_1_" clip-path="url(#SVGID_12_)">
			
				<image overflow="visible" width="376" height="187" id="TNbIrj_2_" xlink:href="B88725F9B4605F36.jpg"  transform="matrix(1 0 0 1.0013 448.0049 291.4961)">
			</image>
			<g id="_x39_K0Qf9_1_">
				
					<image overflow="visible" width="223" height="193" id="_x39_K0Qf9_2_" xlink:href="B88725F9B4605F32.jpg"  transform="matrix(1 0 0 1.0182 344.2549 673.4971)">
				</image>
			</g>
		</g>
	</g>
	<g id="hash8">
		
			<image overflow="visible" width="187" height="187" id="wk3Efv_2_" xlink:href="AB887D1711EDC2F4.jpg"  transform="matrix(1 0 0 1 52.9463 292.0049)">
		</image>
	</g>
	<g id="hash">
		
			<image overflow="visible" width="206" height="187" id="_x30_Z9yHE_2_" xlink:href="AB887D1711EDC2F3.jpg"  transform="matrix(1.0218 0 0 1.0187 565.0049 680.0049)">
		</image>
	</g>
	<g id="hash9">
		<defs>
			<polyline id="SVGID_95_" points="214.505,173.755 382.255,173.755 367.005,292.005 200.255,292.005 			"/>
		</defs>
		<clipPath id="SVGID_14_">
			<use xlink:href="#SVGID_95_"  overflow="visible"/>
		</clipPath>
		<g id="SQoRBJ_1_" clip-path="url(#SVGID_14_)">
			
				<image overflow="visible" width="187" height="170" id="SQoRBJ_2_" xlink:href="AB887D1711EDC30C.jpg"  transform="matrix(1.0053 0 0 1.0085 200.2549 173.7549)">
			</image>
		</g>
	</g>
	<g id="hash10">
		<defs>
			<polyline id="SVGID_97_" points="550.171,145.505 718.171,145.505 699.505,292.005 531.171,292.005 			"/>
		</defs>
		<clipPath id="SVGID_16_">
			<use xlink:href="#SVGID_97_"  overflow="visible"/>
		</clipPath>
		<g id="GtGBck_1_" clip-path="url(#SVGID_16_)">
			
				<image overflow="visible" width="187" height="187" id="GtGBck_2_" xlink:href="AB887D1711EDC30F.jpg"  transform="matrix(1.0098 0 0 1.0167 531.1709 145.7568)">
			</image>
		</g>
	</g>
	<g id="hash11">
		
			<image overflow="visible" width="207" height="187" id="_x30_TG08e_2_" xlink:href="AB887D1711EDC30D.jpg"  transform="matrix(1 0 0 1 240.9209 292.0049)">
		</image>
		<g id="WGTQYh_1_">
			
				<image overflow="visible" width="343" height="187" id="WGTQYh_2_" xlink:href="AB887D1711EDC313.jpg"  transform="matrix(1 0 0 1 1.0049 681.7549)">
			</image>
		</g>
	</g>
	<g id="hash12">
		<defs>
			<polygon id="SVGID_99_" points="236.505,1.005 403.255,1.005 382.255,173.755 214.505,173.755 			"/>
		</defs>
		<clipPath id="SVGID_18_">
			<use xlink:href="#SVGID_99_"  overflow="visible"/>
		</clipPath>
		<g id="ueJrEn_1_" clip-path="url(#SVGID_18_)">
			
				<image overflow="visible" width="190" height="195" id="ueJrEn_2_" xlink:href="AB887D1711EDC314.jpg"  transform="matrix(1.0043 0 0 1.0043 212.0244 1.0049)">
			</image>
		</g>
	</g>
	<g id="hash13">
		<defs>
			<polyline id="SVGID_101_" points="568.855,0.755 550.037,145.755 717.9,145.505 737.505,0.755 			"/>
		</defs>
		<clipPath id="SVGID_20_">
			<use xlink:href="#SVGID_101_"  overflow="visible"/>
		</clipPath>
		<g id="_x35_68Vf9_1_" clip-path="url(#SVGID_20_)">
			
				<image overflow="visible" width="193" height="145" id="_x35_68Vf9_2_" xlink:href="AB887D1711EDC317.jpg"  transform="matrix(1.0054 0 0 1 547.1553 0.7549)">
			</image>
		</g>
	</g>
	<g id="hash">
		<polygon fill="none" stroke="#DF366D" stroke-width="2.0099" stroke-miterlimit="10" points="236.505,1.005 403.255,1.005 
			367.005,291.005 531.171,291.005 568.838,1.005 736.505,1.005 699.505,291.005 824.005,291.005 824.005,480.005 676.506,480.005 
			648.506,680.005 775.505,680.005 775.505,870.505 627.172,870.505 589.172,1160.838 421.839,1160.838 458.506,870.505 
			293.839,870.505 257.172,1160.838 89.839,1160.838 127.172,870.505 1.005,870.505 1.005,680.005 149.172,680.005 175.172,480.005 
			52.054,480.005 52.054,291.005 199.255,291.005 		"/>
		<polygon fill="none" points="344.005,480.005 509.172,480.005 481.172,680.005 316.506,680.005 		"/>
		<rect x="52.054" y="291.005" fill="none" width="188.784" height="189"/>
		<rect x="240.838" y="291.005" fill="none" width="207.167" height="189"/>
		<rect x="448.005" y="291.005" fill="none" width="376" height="189"/>
		<rect x="1.005" y="680.005" fill="none" width="343" height="190.5"/>
		<rect x="344.005" y="680.005" fill="none" width="223.5" height="190.5"/>
		<rect x="567.505" y="680.005" fill="none" width="208" height="190.5"/>
		<polygon fill="none" points="236.505,1.005 403.255,1.005 382.255,173.755 214.505,173.755 		"/>
		<polygon fill="none" points="214.505,173.755 382.255,173.755 367.005,291.005 199.255,291.005 		"/>
		<polygon fill="none" points="568.838,1.005 736.505,1.005 718.171,145.505 550.171,145.505 		"/>
		<polygon fill="none" points="718.171,145.505 699.505,291.005 531.171,291.005 550.171,145.505 		"/>
		<polygon fill="none" points="509.172,480.005 676.506,480.005 648.506,680.005 481.172,680.005 		"/>
		<polygon fill="none" points="175.172,480.005 344.005,480.005 316.506,680.005 149.172,680.005 		"/>
		<polygon fill="none" points="127.172,870.505 293.839,870.505 277.839,992.838 111.839,992.838 		"/>
		<polygon fill="none" points="111.839,992.838 277.839,992.838 257.172,1160.838 89.839,1160.838 		"/>
		<polygon fill="none" points="458.506,870.505 627.172,870.505 610.506,985.505 443.839,985.505 		"/>
		<polygon fill="none" points="443.839,985.505 610.506,985.505 589.172,1160.838 421.839,1160.838 		"/>
	</g>
	<path fill="#DF366D" d="M215.505,173.755"/>
	<path fill="#DF366D" d="M380.505,173.755"/>
	<line fill="#DF366D" x1="550.171" y1="144.724" x2="718.006" y2="144.724"/>
	<polygon fill="none" stroke="#DF366D" stroke-miterlimit="10" points="610.506,985.505 589.172,1160.838 421.839,1160.838 
		443.839,985.505 	"/>
</g>
</svg>
