<?xml version="1.0" encoding="utf-8"?>

<!DOCTYPE svg PUBLIC "-//W3C//DTD SVG 1.1//EN" "http://www.w3.org/Graphics/SVG/1.1/DTD/svg11.dtd">
<svg version="1.1" id="Layer_1" xmlns="http://www.w3.org/2000/svg" xmlns:xlink="http://www.w3.org/1999/xlink" x="0px" y="0px"
	 width="803.582px" height="1177.133px" viewBox="0 0 803.582 1177.133" enable-background="new 0 0 803.582 1177.133"
	 xml:space="preserve">
<g id="D_pic">
	<g>
		<defs>
			<rect id="SVGID_15_" width="314.833" height="186.668"/>
		</defs>
		<clipPath id="SVGID_2_">
			<use xlink:href="#SVGID_15_"  overflow="visible"/>
		</clipPath>
		<g id="cgFrww_1_" clip-path="url(#SVGID_2_)">
			
				<image overflow="visible" width="301" height="438" id="cgFrww_2_" xlink:href="10C7C89A65304FF5.jpg"  transform="matrix(1.0034 0 0 1.0143 13.583 12.9717)">
			</image>
		</g>
	</g>
	<g id="WRBx9T_1_">
		
			<image overflow="visible" width="239" height="269" id="WRBx9T_2_" xlink:href="10C7C89A65304FF7.jpg"  transform="matrix(1 0 0 1 14.583 186.333)">
		</image>
	</g>
	<g id="_x34_NVf9u_1_">
		
			<image overflow="visible" width="239" height="202" id="_x34_NVf9u_2_" xlink:href="10C7C89A65304FF2.jpg"  transform="matrix(1.0105 0 0 1.0105 13.333 455.333)">
		</image>
	</g>
	<g id="mX9Z4d_1_">
		
			<image overflow="visible" width="239" height="166" id="mX9Z4d_2_" xlink:href="10C7C89A65304FF3.jpg"  transform="matrix(1.0118 0 0 1.0118 13 659.208)">
		</image>
	</g>
	<g id="ya6096_1_">
		
			<image overflow="visible" width="238" height="212" id="ya6096_2_" xlink:href="10C7C89A65304FFD.jpg"  transform="matrix(1.0147 0 0 1.018 13.333 827.1758)">
		</image>
	</g>
	<g id="j5TsWr_1_">
		
			<image overflow="visible" width="239" height="166" id="j5TsWr_2_" xlink:href="10C7C89A65304FFF.jpg"  transform="matrix(1.0105 0 0 1.0561 13.333 1000.2646)">
		</image>
	</g>
	<g>
		<defs>
			<path id="SVGID_17_" d="M516.333,916.667c0,0-31.5,77.545-137,81.372h-124.5v177.794h116.5c0,0,111.325-5.908,145-11.735V916.667
				z"/>
		</defs>
		<clipPath id="SVGID_4_">
			<use xlink:href="#SVGID_17_"  overflow="visible"/>
		</clipPath>
		<g id="Vb27pv_1_" clip-path="url(#SVGID_4_)">
			
				<image overflow="visible" width="263" height="251" id="Vb27pv_2_" xlink:href="10C7C89A65304FF0.jpg"  transform="matrix(1 0 0 1.0203 254.083 920.998)">
			</image>
		</g>
	</g>
	<g>
		<defs>
			<path id="SVGID_19_" d="M314.833,186.668h422.5c0,0-31.667-86.423-122.666-129.708c0,0-39.999-26.667-149.333-41.645
				c0,0-10-1.646-34.667-1.481H314.833V186.668z"/>
		</defs>
		<clipPath id="SVGID_6_">
			<use xlink:href="#SVGID_19_"  overflow="visible"/>
		</clipPath>
		<g id="l8VoeJ_1_" clip-path="url(#SVGID_6_)">
			
				<image overflow="visible" width="421" height="171" id="l8VoeJ_2_" xlink:href="10C7C89A65304FF1.jpg"  transform="matrix(1 0 0 1.0092 314.583 13.7505)">
			</image>
		</g>
	</g>
	<g>
		<defs>
			<path id="SVGID_21_" d="M544.333,837.333h239.775c0,0-5.275,66.75-39.275,135.5c0,0-55.5,159.5-228.5,190v-242.5
				C516.333,920.333,539.854,871.996,544.333,837.333z"/>
		</defs>
		<clipPath id="SVGID_8_">
			<use xlink:href="#SVGID_21_"  overflow="visible"/>
		</clipPath>
		<g id="LHmozH_1_" clip-path="url(#SVGID_8_)">
			
				<image overflow="visible" width="266" height="323" id="LHmozH_2_" xlink:href="10C7C89A65304FF6.jpg"  transform="matrix(1.0076 0 0 1 516.083 838.583)">
			</image>
		</g>
	</g>
	<g>
		<defs>
			<path id="SVGID_23_" d="M559.396,631.585l242.657,0.248c0,0-0.905,120.833-19.305,207.167H543.333
				C543.333,839,555.333,772.333,559.396,631.585z"/>
		</defs>
		<clipPath id="SVGID_10_">
			<use xlink:href="#SVGID_23_"  overflow="visible"/>
		</clipPath>
		<g id="wvu798_1_" clip-path="url(#SVGID_10_)">
			
				<image overflow="visible" width="253" height="243" id="wvu798_2_" xlink:href="6CDFFE509FFB8E7E.jpg"  transform="matrix(1.0249 0 0 1.02 543.8369 617.1035)">
			</image>
		</g>
	</g>
	<g>
		<defs>
			<path id="SVGID_25_" d="M555.333,460.833c0,0,6,146.5,3,171h243c0,0,4.078-101-3.422-171H555.333z"/>
		</defs>
		<clipPath id="SVGID_12_">
			<use xlink:href="#SVGID_25_"  overflow="visible"/>
		</clipPath>
		<g id="Ox6Q80_1_" clip-path="url(#SVGID_12_)">
			
				<image overflow="visible" width="246" height="171" id="Ox6Q80_2_" xlink:href="6CDFFE509FFB8E79.jpg"  transform="matrix(1.0097 0 0 1 555.1885 460.833)">
			</image>
		</g>
	</g>
	<g>
		<defs>
			<path id="SVGID_27_" d="M788.833,368.333h-242c0,0,9.5,73.5,8.5,92.5h242C797.333,460.833,796.333,422.333,788.833,368.333z"/>
		</defs>
		<clipPath id="SVGID_14_">
			<use xlink:href="#SVGID_27_"  overflow="visible"/>
		</clipPath>
		<g id="_x38_d4k6Z_1_" clip-path="url(#SVGID_14_)">
			
				<image overflow="visible" width="251" height="119" id="_x38_d4k6Z_2_" xlink:href="6CDFFE509FFB8E7A.jpg"  transform="matrix(1 0 0 1 546.333 362.833)">
			</image>
		</g>
	</g>
	<g>
		<defs>
			<path id="SVGID_29_" d="M737.333,185.668h-347c0,0,58,5.665,111.963,63.769c22.526,24.255,36.094,64.861,44.537,118.896h242
				C788.833,368.333,776.69,249.139,737.333,185.668z"/>
		</defs>
		<clipPath id="SVGID_16_">
			<use xlink:href="#SVGID_29_"  overflow="visible"/>
		</clipPath>
		<g id="_x35_8tJuH_1_" clip-path="url(#SVGID_16_)">
			
				<image overflow="visible" width="423" height="391" id="_x35_8tJuH_2_" xlink:href="6CDFFE509FFB8E78.jpg"  transform="matrix(1.0239 0 0 1.0055 369.333 184.6626)">
			</image>
		</g>
	</g>
	<g id="d">
		<path fill="none" stroke="#DF366D" stroke-miterlimit="10" d="M254.833,187.333v812.75h124.5c0,0,137.979,12.163,165-162.75
			c0,0,26.479-204.605,11-376.5c0,0-2.178-163.735-59.825-218.95c0,0-40.207-46.491-105.175-55.215L254.833,187.333z"/>
		<rect x="13.333" y="13.833" fill="none" width="301.5" height="172.835"/>
		<rect x="13.333" y="187.333" fill="none" width="241.5" height="267"/>
		<rect x="13.333" y="454.333" fill="none" width="241.5" height="200"/>
		<rect x="13.333" y="654.333" fill="none" width="241.5" height="144"/>
		<rect x="13.333" y="798.333" fill="none" width="241.5" height="211.5"/>
		<rect x="13.333" y="1009.833" fill="none" width="241.5" height="164.5"/>
		<path fill="none" d="M314.833,186.668h422.5c0,0-33.197-85.359-122.666-129.708c0,0-39.999-26.667-149.333-41.645
			c0,0-10-1.646-34.667-1.481H314.833V186.668z"/>
		<path fill="none" d="M737.333,186.668h-347c0,0,41.667,4.665,88.782,38.534c31.991,22.997,57.507,69.815,67.718,143.131h242
			C788.833,368.333,776.69,249.792,737.333,186.668z"/>
		<path fill="none" d="M788.833,368.333h-242c0,0,9.5,73.5,8.5,92.5h241C796.333,460.833,791.651,389.933,788.833,368.333z"/>
		<path fill="none" d="M555.333,460.833c0,0,6,146.5,3,171h242c0,0,3.5-101-4-171H555.333z"/>
		<path fill="none" d="M558.333,631.833h240.5c0,0,2,120-17,205.5h-237.5C544.333,837.333,555.833,771.333,558.333,631.833z"/>
		<path fill="none" d="M544.333,837.333h237.5c0,0-6.5,72.5-37,135.5c0,0-55.5,159.5-228.5,190v-242.5
			C516.333,920.333,539.854,871.996,544.333,837.333z"/>
		<path fill="none" d="M516.333,920.333c0,0-31.5,76-137,79.75h-124.5v174.25h116.5c0,0,115,1.5,145-11.5V920.333z"/>
		<path fill="none" stroke="#DF366D" stroke-width="2" stroke-miterlimit="10" d="M13.333,13.833h301.5l93.028-0.644
			c0,0,237.465-17.287,329.472,173.479c0,0,53.623,69.421,63.815,334.083c0,0,8.731,227.516-28.036,368.333
			c0,0-44.812,238.689-256.779,273.749c0,0-96.436,14.838-178.968,13.169l-324.032-1.669V13.833z"/>
	</g>
</g>
</svg>
