<?xml version="1.0" encoding="utf-8"?>
<!-- Generator: Adobe Illustrator 16.2.1, SVG Export Plug-In . SVG Version: 6.00 Build 0)  -->
<!DOCTYPE svg PUBLIC "-//W3C//DTD SVG 1.1//EN" "http://www.w3.org/Graphics/SVG/1.1/DTD/svg11.dtd">
<svg version="1.1" id="Layer_1" xmlns="http://www.w3.org/2000/svg" xmlns:xlink="http://www.w3.org/1999/xlink" x="0px" y="0px"
	 width="803.582px" height="1177.133px" viewBox="0 0 803.582 1177.133" enable-background="new 0 0 803.582 1177.133"
	 xml:space="preserve">
<g id="D">
	<g id="D1">
		<defs>
			<rect id="SVGID_15_" x="-6" y="-1" width="314.833" height="186.668"/>
		</defs>
		<clipPath id="SVGID_2_">
			<use xlink:href="#SVGID_15_"  overflow="visible"/>
		</clipPath>
		<g id="cgFrww_1_" clip-path="url(#SVGID_2_)">
			
				<image overflow="visible" width="301" height="438" id="cgFrww_2_" xlink:href="C616B5E0D5021BA4.jpg"  transform="matrix(1.0034 0 0 1.0143 7.583 11.9717)">
			</image>
		</g>
	</g>
	<g id="D2">
		
			<image overflow="visible" width="239" height="269" id="WRBx9T_2_" xlink:href="C616B5E0D5021BA5.jpg"  transform="matrix(1 0 0 1 8.583 185.333)">
		</image>
	</g>
	<g id="D3">
		
			<image overflow="visible" width="239" height="202" id="_x34_NVf9u_2_" xlink:href="C616B5E0D5021BA3.jpg"  transform="matrix(1.0105 0 0 1.0105 7.333 454.333)">
		</image>
	</g>
	<g id="D4">
		
			<image overflow="visible" width="239" height="166" id="mX9Z4d_2_" xlink:href="C616B5E0D5021BAC.jpg"  transform="matrix(1.0118 0 0 1.0118 7 658.208)">
		</image>
	</g>
	<g id="D5">
		<defs>
			<rect id="SVGID_17_" x="7.333" y="826.176" width="241.501" height="182.825"/>
		</defs>
		<clipPath id="SVGID_4_">
			<use xlink:href="#SVGID_17_"  overflow="visible"/>
		</clipPath>
		<g id="ya6096_1_" clip-path="url(#SVGID_4_)">
			
				<image overflow="visible" width="238" height="212" id="ya6096_2_" xlink:href="C616B5E0D5021BAF.jpg"  transform="matrix(1.0147 0 0 1.018 7.333 826.1758)">
			</image>
		</g>
	</g>
	<g id="D6">
		<defs>
			<rect id="SVGID_19_" x="7.333" y="1008.833" width="241.5" height="165.744"/>
		</defs>
		<clipPath id="SVGID_6_">
			<use xlink:href="#SVGID_19_"  overflow="visible"/>
		</clipPath>
		<g id="j5TsWr_1_" clip-path="url(#SVGID_6_)">
			
				<image overflow="visible" width="239" height="166" id="j5TsWr_2_" xlink:href="C616B5E0D5021BAD.jpg"  transform="matrix(1.0626 0 0 1.1106 1.9893 994.7393)">
			</image>
		</g>
	</g>
	<g id="D7">
		<defs>
			<path id="SVGID_21_" d="M510.333,915.667c0,0-31.5,77.545-137,81.372h-124.5v177.794h116.5c0,0,111.325-5.908,145-11.735V915.667
				z"/>
		</defs>
		<clipPath id="SVGID_8_">
			<use xlink:href="#SVGID_21_"  overflow="visible"/>
		</clipPath>
		<g id="Vb27pv_1_" clip-path="url(#SVGID_8_)">
			
				<image overflow="visible" width="263" height="251" id="Vb27pv_2_" xlink:href="C616B5E0D5021BA2.jpg"  transform="matrix(1 0 0 1.0203 248.083 919.998)">
			</image>
		</g>
	</g>
	<g id="D8">
		<defs>
			<path id="SVGID_23_" d="M308.833,185.668h422.5c0,0-31.667-86.423-122.666-129.708c0,0-39.999-26.667-149.333-41.645
				c0,0-10-1.646-34.667-1.481H308.833V185.668z"/>
		</defs>
		<clipPath id="SVGID_10_">
			<use xlink:href="#SVGID_23_"  overflow="visible"/>
		</clipPath>
		<g id="l8VoeJ_1_" clip-path="url(#SVGID_10_)">
			
				<image overflow="visible" width="421" height="171" id="l8VoeJ_2_" xlink:href="C616B5E0D5021BA6.jpg"  transform="matrix(1 0 0 1.0092 308.583 12.7505)">
			</image>
		</g>
	</g>
	<g id="D9">
		<defs>
			<path id="SVGID_25_" d="M538.333,836.333h239.775c0,0-5.275,66.75-39.275,135.5c0,0-55.5,159.5-228.5,190v-242.5
				C510.333,919.333,533.854,870.996,538.333,836.333z"/>
		</defs>
		<clipPath id="SVGID_12_">
			<use xlink:href="#SVGID_25_"  overflow="visible"/>
		</clipPath>
		<g id="LHmozH_1_" clip-path="url(#SVGID_12_)">
			
				<image overflow="visible" width="266" height="323" id="LHmozH_2_" xlink:href="C616B5E0D5021BA7.jpg"  transform="matrix(1.0076 0 0 1 510.083 837.583)">
			</image>
		</g>
	</g>
	<g id="D9">
		<defs>
			<path id="SVGID_27_" d="M553.396,630.585l242.657,0.248c0,0-0.905,120.833-19.305,207.167H537.333
				C537.333,838,549.333,771.333,553.396,630.585z"/>
		</defs>
		<clipPath id="SVGID_14_">
			<use xlink:href="#SVGID_27_"  overflow="visible"/>
		</clipPath>
		<g id="wvu798_1_" clip-path="url(#SVGID_14_)">
			
				<image overflow="visible" width="253" height="243" id="wvu798_2_" xlink:href="A148497EC94DFF03.jpg"  transform="matrix(1.0249 0 0 1.02 537.8369 616.1035)">
			</image>
		</g>
	</g>
	<g id="D10">
		<defs>
			<path id="SVGID_29_" d="M549.333,459.833c0,0,6,146.5,3,171h243c0,0,4.078-101-3.422-171H549.333z"/>
		</defs>
		<clipPath id="SVGID_16_">
			<use xlink:href="#SVGID_29_"  overflow="visible"/>
		</clipPath>
		<g id="Ox6Q80_1_" clip-path="url(#SVGID_16_)">
			
				<image overflow="visible" width="246" height="171" id="Ox6Q80_2_" xlink:href="A148497EC94DFF01.jpg"  transform="matrix(1.0097 0 0 1 549.1885 459.833)">
			</image>
		</g>
	</g>
	<g id="D11">
		<defs>
			<path id="SVGID_31_" d="M782.833,367.333h-242c0,0,9.5,73.5,8.5,92.5h242C791.333,459.833,790.333,421.333,782.833,367.333z"/>
		</defs>
		<clipPath id="SVGID_18_">
			<use xlink:href="#SVGID_31_"  overflow="visible"/>
		</clipPath>
		<g id="_x38_d4k6Z_1_" clip-path="url(#SVGID_18_)">
			
				<image overflow="visible" width="251" height="119" id="_x38_d4k6Z_2_" xlink:href="A148497EC94DFF07.jpg"  transform="matrix(1 0 0 1 540.333 361.833)">
			</image>
		</g>
	</g>
	<g id="D12">
		<defs>
			<path id="SVGID_33_" d="M731.333,184.668h-347c0,0,58,5.665,111.963,63.769c22.526,24.255,36.094,64.861,44.537,118.896h242
				C782.833,367.333,770.69,248.139,731.333,184.668z"/>
		</defs>
		<clipPath id="SVGID_20_">
			<use xlink:href="#SVGID_33_"  overflow="visible"/>
		</clipPath>
		<g id="_x35_8tJuH_1_" clip-path="url(#SVGID_20_)">
			
				<image overflow="visible" width="423" height="391" id="_x35_8tJuH_2_" xlink:href="A148497EC94DFF02.jpg"  transform="matrix(1.0239 0 0 1.0055 363.333 183.6626)">
			</image>
		</g>
	</g>
	<g id="d">
		<path fill="none" stroke="#DF366D" stroke-miterlimit="10" d="M248.833,186.333v812.75h124.5c0,0,137.979,12.163,165-162.75
			c0,0,26.479-204.605,11-376.5c0,0-2.178-163.735-59.825-218.95c0,0-40.207-46.491-105.175-55.215L248.833,186.333z"/>
		<rect x="7.333" y="12.833" fill="none" width="301.5" height="172.835"/>
		<rect x="7.333" y="186.333" fill="none" width="241.5" height="267"/>
		<rect x="7.333" y="453.333" fill="none" width="241.5" height="200"/>
		<rect x="7.333" y="653.333" fill="none" width="241.5" height="144"/>
		<rect x="7.333" y="797.333" fill="none" width="241.5" height="211.5"/>
		<rect x="7.333" y="1008.833" fill="none" width="241.5" height="164.5"/>
		<path fill="none" d="M308.833,185.668h422.5c0,0-33.197-85.359-122.666-129.708c0,0-39.999-26.667-149.333-41.645
			c0,0-10-1.646-34.667-1.481H308.833V185.668z"/>
		<path fill="none" d="M731.333,185.668h-347c0,0,41.667,4.665,88.782,38.534c31.991,22.997,57.507,69.815,67.718,143.131h242
			C782.833,367.333,770.69,248.792,731.333,185.668z"/>
		<path fill="none" d="M782.833,367.333h-242c0,0,9.5,73.5,8.5,92.5h241C790.333,459.833,785.651,388.933,782.833,367.333z"/>
		<path fill="none" d="M549.333,459.833c0,0,6,146.5,3,171h242c0,0,3.5-101-4-171H549.333z"/>
		<path fill="none" d="M552.333,630.833h240.5c0,0,2,120-17,205.5h-237.5C538.333,836.333,549.833,770.333,552.333,630.833z"/>
		<path fill="none" d="M538.333,836.333h237.5c0,0-6.5,72.5-37,135.5c0,0-55.5,159.5-228.5,190v-242.5
			C510.333,919.333,533.854,870.996,538.333,836.333z"/>
		<path fill="none" d="M510.333,919.333c0,0-31.5,76-137,79.75h-124.5v174.25h116.5c0,0,115,1.5,145-11.5V919.333z"/>
		<path fill="none" stroke="#DF366D" stroke-width="2" stroke-miterlimit="10" d="M7.333,12.833h301.5l93.028-0.644
			c0,0,237.465-17.287,329.472,173.479c0,0,53.623,69.421,63.815,334.083c0,0,8.731,227.516-28.036,368.333
			c0,0-44.812,238.689-256.779,273.749c0,0-96.436,14.838-178.968,13.169l-324.032-1.669V12.833z"/>
	</g>
</g>
</svg>
