<?xml version="1.0" encoding="utf-8"?>
<!-- Generator: Adobe Illustrator 16.2.1, SVG Export Plug-In . SVG Version: 6.00 Build 0)  -->
<!DOCTYPE svg PUBLIC "-//W3C//DTD SVG 1.1//EN" "http://www.w3.org/Graphics/SVG/1.1/DTD/svg11.dtd">
<svg version="1.1" xmlns="http://www.w3.org/2000/svg" xmlns:xlink="http://www.w3.org/1999/xlink" x="0px" y="0px"
	 width="792.676px" height="1163.338px" viewBox="0 0 792.676 1163.338" enable-background="new 0 0 792.676 1163.338"
	 xml:space="preserve">
	 <!-- I don't know why this is here, Damn you Illustrator 
<g id="N">
	<g id="N1">
		<defs>
			<polyline id="SVGID_49_" points="0.507,-328.334 238.338,-328.334 174.338,-54.334 -73.662,-54.334 			"/>
		</defs>
		<clipPath id="SVGID_2_">
			<use xlink:href="#SVGID_49_"  overflow="visible"/>
		</clipPath>
		<g id="JN6Cfi_1_" clip-path="url(#SVGID_2_)">
			
				<image overflow="visible" width="323" height="343" id="JN6Cfi_2_" xlink:href="B0811F008B436EA9.jpg"  transform="matrix(1.0248 0 0 1 -94.6616 -328.334)">
			</image>
		</g>
	</g>
</g> -->
<g id="N">
	<g id="N1">
		<defs>
			<polygon id="SVGID_103_" points="354.338,206.337 1.005,206.337 1.005,1.005 278.338,1.005 			"/>
		</defs>
		<clipPath id="SVGID_4_">
			<use xlink:href="#SVGID_103_"  overflow="visible"/>
		</clipPath>
		<g id="wbKuln_1_" clip-path="url(#SVGID_4_)">
			
				<image overflow="visible" width="352" height="237" id="wbKuln_2_" xlink:href="B0811F008B436EAB.jpg"  transform="matrix(1 0 0 1 1.0049 1.166)">
			</image>
		</g>
	</g>
	<g id="N2">
		
			<image overflow="visible" width="222" height="292" id="hJuZ9E_2_" xlink:href="B0811F008B436EAE.jpg"  transform="matrix(1.0015 0 0 1.0011 1.3384 206.3369)">
		</image>
	</g>
	<g id="N3">
		
			<image overflow="visible" width="221" height="220" id="M55pdg_2_" xlink:href="B0811F008B436EAF.jpg"  transform="matrix(1 0 0 1 1.8384 498.668)">
		</image>
	</g>
	<g id="N4">
		
			<image overflow="visible" width="220" height="260" id="T73nvk_2_" xlink:href="B0811F008B436EAA.jpg"  transform="matrix(1 0 0 1 2.3384 718.333)">
		</image>
	</g>
	<g id="N5">
		
			<image overflow="visible" width="221" height="183" id="DsX8qL_2_" xlink:href="B0811F008B436EA5.jpg"  transform="matrix(1 0 0 1 1.8384 978.833)">
		</image>
	</g>
	<g id="N6">
		<defs>
			<polyline id="SVGID_105_" points="223.671,206.337 355.004,206.674 439.838,437.666 254.338,437.666 223.671,349.989 			"/>
		</defs>
		<clipPath id="SVGID_6_">
			<use xlink:href="#SVGID_105_"  overflow="visible"/>
		</clipPath>
		<g id="_x38_5b8dY_1_" clip-path="url(#SVGID_6_)">
			
				<image overflow="visible" width="227" height="232" id="_x38_5b8dY_2_" xlink:href="B0811F008B436EA6.jpg"  transform="matrix(1.0272 0 0 1.0116 206.6714 201.9541)">
			</image>
		</g>
	</g>
	<g id="N7">
		<defs>
			<polyline id="SVGID_107_" points="254.338,435.005 438.338,435.005 529.338,678.338 342.338,678.338 			"/>
		</defs>
		<clipPath id="SVGID_8_">
			<use xlink:href="#SVGID_107_"  overflow="visible"/>
		</clipPath>
		<g id="oQhMsJ_1_" clip-path="url(#SVGID_8_)">
			
				<image overflow="visible" width="267" height="242" id="oQhMsJ_2_" xlink:href="B0811F008B436EA7.jpg"  transform="matrix(1.0175 0 0 1 256.3384 435.6719)">
			</image>
		</g>
	</g>
	<g id="N8">
		<defs>
			<polyline id="SVGID_109_" points="343.505,677.333 529.144,677.333 571.672,793.003 384.655,793.003 			"/>
		</defs>
		<clipPath id="SVGID_10_">
			<use xlink:href="#SVGID_109_"  overflow="visible"/>
		</clipPath>
		<g id="raAYkN_1_" clip-path="url(#SVGID_10_)">
			
				<image overflow="visible" width="223" height="116" id="raAYkN_2_" xlink:href="B0811F008B436EB9.jpg"  transform="matrix(1.0277 0 0 0.9972 342.5015 677.333)">
			</image>
		</g>
	</g>
	<g id="N9">
		<defs>
			<polyline id="SVGID_111_" points="383.172,793.003 438.724,940.336 462.396,958.416 533.219,969.916 589.171,957.166 
				585.895,917.166 589.171,842.166 580.602,755.666 			"/>
		</defs>
		<clipPath id="SVGID_12_">
			<use xlink:href="#SVGID_111_"  overflow="visible"/>
		</clipPath>
		<g id="X684Vm_1_" clip-path="url(#SVGID_12_)">
			
				<image overflow="visible" width="187" height="152" id="X684Vm_2_" xlink:href="82A97B1420BEFE72.jpg"  transform="matrix(1.0081 0 0 0.9693 383.1719 793.0029)">
			</image>
		</g>
	</g>
	<g id="N10">
		<defs>
			<polyline id="SVGID_113_" points="437.006,940.336 517.276,1162.334 791.672,1162.336 791.672,940.336 			"/>
		</defs>
		<clipPath id="SVGID_14_">
			<use xlink:href="#SVGID_113_"  overflow="visible"/>
		</clipPath>
		<g clip-path="url(#SVGID_14_)">
			<defs>
				<rect id="SVGID_115_" x="437.006" y="940.336" width="354.666" height="222"/>
			</defs>
			<clipPath id="SVGID_16_">
				<use xlink:href="#SVGID_115_"  overflow="visible"/>
			</clipPath>
			<g id="T2mLYU_1_" clip-path="url(#SVGID_16_)">
				
					<image overflow="visible" width="352" height="220" id="T2mLYU_2_" xlink:href="82A97B1420BEFE75.jpg"  transform="matrix(1.0076 0 0 1.0091 437.0054 940.3359)">
				</image>
			</g>
		</g>
	</g>
	<g id="N11">
		
			<image overflow="visible" width="220" height="207" id="jWtS6C_2_" xlink:href="82A97B1420BEFE76.jpg"  transform="matrix(1 0 0 1 571.6714 735.6699)">
		</image>
	</g>
	<g id="N12">
		
			<image overflow="visible" width="220" height="205" id="IysXqm_2_" xlink:href="82A97B1420BEFE74.jpg"  transform="matrix(1 0 0 1.0024 571.6714 530.1699)">
		</image>
	</g>
	<g id="N13">
		
			<image overflow="visible" width="220" height="184" id="_x38_bysbE_2_" xlink:href="82A97B1420BEFE73.jpg"  transform="matrix(1 0 0 1.0041 571.6714 345.6689)">
		</image>
	</g>
	<g id="N14">
		
			<image overflow="visible" width="270" height="80" id="_x34_JLYCj_2_" xlink:href="82A97B1420BEFE6D.jpg"  transform="matrix(0.8148 0 0 0.8148 571.6714 280.0029)">
		</image>
	</g>
	<g id="N16">
		
			<image overflow="visible" width="220" height="273" id="XnmQsz_2_" xlink:href="82A97B1420BEFE6E.jpg"  transform="matrix(1 0 0 1 572.3384 1.5039)">
		</image>
	</g>
	<g id="n">
		<polygon fill="none" stroke="#DF366D" stroke-width="2.0099" stroke-miterlimit="10" points="1.005,1162.333 1.005,1.005 
			279.005,1.005 571.671,793.003 571.671,1.005 791.671,1.005 791.671,1162.333 518.338,1162.333 223.671,348.338 223.671,1162.333 
					"/>
		<rect x="1.005" y="978.333" fill="none" width="222.667" height="184"/>
		<rect x="1.005" y="718.333" fill="none" width="222.667" height="260"/>
		<rect x="1.005" y="499.002" fill="none" width="222.667" height="219.331"/>
		<rect x="1.005" y="206.337" fill="none" width="222.667" height="292.665"/>
		<polyline fill="none" points="1.005,206.337 1.005,1.005 279.005,1.005 353.671,206.337 223.671,206.337 223.671,348.338 
			254.338,435.005 438.338,435.005 279.005,1.005 		"/>
		<polygon fill="none" points="254.338,435.005 438.338,435.005 529.338,678.338 342.338,678.338 		"/>
		<polygon fill="none" points="529.338,678.338 572.005,793.003 385.338,793.003 342.338,678.338 		"/>
		<polygon fill="none" points="385.338,793.003 571.671,793.003 571.671,940.336 439.108,940.336 		"/>
		<polygon fill="none" points="438.338,940.336 791.671,940.336 791.671,1162.333 518.338,1162.333 		"/>
		<rect x="571.671" y="735.67" fill="none" width="220" height="204.666"/>
		<rect x="571.671" y="529.669" fill="none" width="220" height="206.001"/>
		<rect x="571.671" y="345.669" fill="none" width="220" height="184"/>
		<rect x="571.671" y="275.003" fill="none" width="220" height="70.666"/>
		<rect x="571.671" y="1.005" fill="none" width="220" height="273.998"/>
	</g>
	<path fill="#DF366D" d="M485.838,400.166"/>
	<path fill="#DF366D" d="M344.338,678.338"/>
</g>
</svg>
