<?xml version="1.0" encoding="utf-8"?>
<!-- Generator: Adobe Illustrator 16.2.1, SVG Export Plug-In . SVG Version: 6.00 Build 0)  -->
<!DOCTYPE svg PUBLIC "-//W3C//DTD SVG 1.1//EN" "http://www.w3.org/Graphics/SVG/1.1/DTD/svg11.dtd">
<svg version="1.1" id="Layer_1" xmlns="http://www.w3.org/2000/svg" xmlns:xlink="http://www.w3.org/1999/xlink" x="0px" y="0px"
	 width="367.124px" height="451.917px" viewBox="0 0 367.124 451.917" enable-background="new 0 0 367.124 451.917"
	 xml:space="preserve">
<g id="A">
	<g id="A1">
		<defs>
			<polyline id="SVGID_45_" points="265.858,79.362 244.91,1 130.082,1 109.133,79.165 			"/>
		</defs>
		<clipPath id="SVGID_2_">
			<use xlink:href="#SVGID_45_"  overflow="visible"/>
		</clipPath>
		<g id="Odc0nd_1_" clip-path="url(#SVGID_2_)">
			
				<image overflow="visible" width="406" height="200" id="Odc0nd_2_" xlink:href="702E46518ABB9FD7.jpg"  transform="matrix(0.3879 0 0 0.3879 108.8145 1.3877)">
			</image>
		</g>
	</g>
	<g id="A2">
		<defs>
			<polyline id="SVGID_47_" points="108.9,78.974 82.629,175.255 165.776,175.254 186.983,78.974 			"/>
		</defs>
		<clipPath id="SVGID_4_">
			<use xlink:href="#SVGID_47_"  overflow="visible"/>
		</clipPath>
		<g id="wkFXnh_1_" clip-path="url(#SVGID_4_)">
			
				<image overflow="visible" width="269" height="252" id="wkFXnh_2_" xlink:href="702E46518ABB9FD5.jpg"  transform="matrix(0.3879 0 0 0.3821 82.6294 79.1313)">
			</image>
		</g>
	</g>
	<g id="A3">
		<defs>
			<polyline id="SVGID_49_" points="166.293,175.181 152.904,233.759 66.952,233.759 83.101,175.311 			"/>
		</defs>
		<clipPath id="SVGID_6_">
			<use xlink:href="#SVGID_49_"  overflow="visible"/>
		</clipPath>
		<g id="YWeDyf_1_" clip-path="url(#SVGID_6_)">
			
				<image overflow="visible" width="256" height="154" id="YWeDyf_2_" xlink:href="702E46518ABB9FDB.jpg"  transform="matrix(0.39 0 0 0.3804 66.4629 175.1812)">
			</image>
		</g>
		<use xlink:href="#SVGID_49_"  overflow="visible" fill="none" stroke="#DF366D" stroke-miterlimit="10"/>
	</g>
	<g id="A4">
		<defs>
			<polygon id="SVGID_51_" points="66.952,233.758 152.904,233.759 129.069,344.707 36.919,344.707 			"/>
		</defs>
		<clipPath id="SVGID_8_">
			<use xlink:href="#SVGID_51_"  overflow="visible"/>
		</clipPath>
	</g>
	<g id="A5">
		<defs>
			<polyline id="SVGID_53_" points="36.919,344.707 129.181,344.707 104.353,451 8.146,451 			"/>
		</defs>
		<clipPath id="SVGID_10_">
			<use xlink:href="#SVGID_53_"  overflow="visible"/>
		</clipPath>
		<g id="JN6Cfi_1_" clip-path="url(#SVGID_10_)">
			
				<image overflow="visible" width="323" height="343" id="JN6Cfi_2_" xlink:href="702E46518ABB9FDD.jpg"  transform="matrix(0.3975 0 0 0.3879 0 344.707)">
			</image>
		</g>
	</g>
	<g id="A6">
		<defs>
			<polyline id="SVGID_55_" points="265.604,79.104 294.439,184.104 209.786,184.104 186.207,79.362 			"/>
		</defs>
		<clipPath id="SVGID_12_">
			<use xlink:href="#SVGID_55_"  overflow="visible"/>
		</clipPath>
		<g id="eNzgEO_1_" clip-path="url(#SVGID_12_)">
			
				<image overflow="visible" width="275" height="273" id="eNzgEO_2_" xlink:href="702E46518ABB9FDF.jpg"  transform="matrix(0.3954 0 0 0.3954 186.5947 79.3623)">
			</image>
		</g>
	</g>
	<g id="A7">
		<defs>
			<polyline id="SVGID_57_" points="209.864,184.123 294.433,184.087 302.657,214.343 216.604,214.379 			"/>
		</defs>
		<clipPath id="SVGID_14_">
			<use xlink:href="#SVGID_57_"  overflow="visible"/>
		</clipPath>
		<g id="jFtOeO_1_" clip-path="url(#SVGID_14_)">
			
				<image overflow="visible" width="237" height="77" id="jFtOeO_2_" xlink:href="702E46518ABB9FDC.jpg"  transform="matrix(0.3879 -1.621552e-04 1.621552e-04 0.3879 209.8643 184.1226)">
			</image>
		</g>
	</g>
	<g id="A8">
		
			<image overflow="visible" width="284" height="236" id="MAhpsX_2_" xlink:href="702E46518ABB9FD4.jpg"  transform="matrix(0.3857 0 0 0.3846 216.7241 214.3789)">
		</image>
	</g>
	<g id="A9">
		<defs>
			<polyline id="SVGID_59_" points="237.026,305.138 326.587,305.138 345.517,376.129 253.641,376.129 			"/>
		</defs>
		<clipPath id="SVGID_16_">
			<use xlink:href="#SVGID_59_"  overflow="visible"/>
		</clipPath>
		<g id="tLf0O2_1_" clip-path="url(#SVGID_16_)">
			
				<image overflow="visible" width="282" height="183" id="tLf0O2_2_" xlink:href="702E46518ABB9FD6.jpg"  transform="matrix(0.3879 0 0 0.3879 237.0259 305.1377)">
			</image>
		</g>
	</g>
	<g id="A10">
		<defs>
			<polyline id="SVGID_61_" points="253.707,376.129 345.414,376.129 365.819,451 270.725,451 			"/>
		</defs>
		<clipPath id="SVGID_18_">
			<use xlink:href="#SVGID_61_"  overflow="visible"/>
		</clipPath>
		<g id="pXTip6_1_" clip-path="url(#SVGID_18_)">
			
				<image overflow="visible" width="291" height="193" id="pXTip6_2_" xlink:href="702E46518ABB9FD2.jpg"  transform="matrix(0.3897 0 0 0.3879 253.7065 376.1294)">
			</image>
		</g>
	</g>
	<g id="A11">
		<defs>
			<polyline id="SVGID_63_" points="231.904,282.088 248.664,356.151 244.008,363.974 199.785,362.293 164.224,361 171.078,289.233 
				173.664,278.242 			"/>
		</defs>
		<clipPath id="SVGID_20_">
			<use xlink:href="#SVGID_63_"  overflow="visible"/>
		</clipPath>
		<g id="qSjni6_1_" clip-path="url(#SVGID_20_)">
			
				<image overflow="visible" width="186" height="191" id="qSjni6_2_" xlink:href="36B029C90D1E1A14.jpg"  transform="matrix(0.3879 0 0 0.3879 176.5083 282.0562)">
			</image>
		</g>
	</g>
	<g id="A12">
		<defs>
			<path id="SVGID_65_" d="M141.724,282.25l-15.646,74.095h18.247h28.783h3.247l0.155-6.341c0.388-0.388,0-62.879,0-62.879
				s5.819-22.46,6.207-22.59"/>
		</defs>
		<clipPath id="SVGID_22_">
			<use xlink:href="#SVGID_65_"  overflow="visible"/>
		</clipPath>
		<g id="EFEXB5_1_" clip-path="url(#SVGID_22_)">
			
				<image overflow="visible" width="130" height="191" id="EFEXB5_2_" xlink:href="36B029C90D1E1A13.jpg"  transform="matrix(0.3879 0 0 0.3879 126.0776 282.25)">
			</image>
		</g>
	</g>
	<g id="a">
		<polygon fill="none" stroke="#DF366D" stroke-width="2" stroke-miterlimit="10" points="109.008,78.974 265.733,79.362 244.785,1 
			129.957,1 		"/>
		<polygon fill="none" points="109.008,78.974 82.629,175.569 165.646,175.569 186.207,79.362 		"/>
		<polygon fill="none" points="82.629,175.569 165.646,175.569 152.457,233.759 67.112,233.759 		"/>
		<polyline fill="none" points="152.457,233.759 129.181,344.707 36.078,344.707 66.724,233.759 		"/>
		<polygon fill="none" points="129.181,344.707 104.353,451 8.146,451 36.078,344.707 		"/>
		<polygon fill="none" points="143.146,281.862 231.595,281.862 248.664,356.345 126.462,356.345 		"/>
		<polygon fill="none" points="186.207,79.362 265.733,79.362 294.439,184.104 209.871,184.104 		"/>
		<polygon fill="none" points="209.871,184.104 216.853,214.362 302.974,214.362 294.439,184.104 		"/>
		<polygon fill="none" points="216.853,214.362 302.974,214.362 326.25,305.138 237.026,305.138 		"/>
		<polygon fill="none" points="271.164,451 365.819,451 326.25,305.138 237.026,305.138 		"/>
		<polygon fill="none" stroke="#DF366D" stroke-width="2" stroke-miterlimit="10" points="129.957,1 244.785,1 365.819,451 
			271.164,451 249.01,356.345 126.462,356.345 104.353,451 8.146,451 		"/>
		<polygon fill="none" stroke="#DF366D" stroke-width="2" stroke-miterlimit="10" points="186.983,82.797 231.845,282.088 
			143.146,281.862 		"/>
	</g>
</g>
</svg>
